<?xml version="1.0" encoding="utf-8"?>
<!-- Generator: Adobe Illustrator 24.1.1, SVG Export Plug-In . SVG Version: 6.00 Build 0)  -->
<svg version="1.1" id="Layer_1" xmlns="http://www.w3.org/2000/svg" xmlns:xlink="http://www.w3.org/1999/xlink" x="0px" y="0px"
	 viewBox="0 0 80.13 80.13" style="enable-background:new 0 0 80.13 80.13;" xml:space="preserve">
<style type="text/css">
	.st0{fill:#00507C;}
	.st1{fill:#CCE8FF;}
</style>
<g>
	<path class="st0" d="M77.2,42.36H66l-28.1,28.1l-0.63,0.63H9.54v5.62c0,1.37,1.11,2.48,2.48,2.48h34.35l0.63-0.63l31.96-31.96
		C80.52,45.03,79.41,42.36,77.2,42.36z"/>
	<g>
		<path class="st1" d="M68.11,34.27H46.36h-6.62c-1.37,0-2.48-1.11-2.48-2.48V14.63V3.42c0-2.21-2.67-3.31-4.23-1.75L1.07,33.64
			L0.5,34.21l8.59,8.59L8.38,43.5l-7.93-7.94v5.59l5.14,5.14L4.88,47l-4.43-4.43v26.05c0,1.37,1.11,2.48,2.48,2.48h6.62h19.43
			L23.88,66l0.71-0.71l5.8,5.8h5.59l-8.59-8.59l0.71-0.71l9.24,9.24l0.57-0.57L66,42.36l3.86-3.86
			C71.42,36.94,70.32,34.27,68.11,34.27z M18.23,39.65c-1.66,0-3-1.34-3-3s1.34-3,3-3s3,1.34,3,3S19.89,39.65,18.23,39.65z
			 M34.73,56.15c-1.66,0-3-1.34-3-3s1.34-3,3-3s3,1.34,3,3S36.39,56.15,34.73,56.15z"/>
	</g>
</g>
</svg>
